<svg width="64" height="64" viewBox="0 0 64 64" fill="none" xmlns="http://www.w3.org/2000/svg">
<g clip-path="url(#clip0_65_176)">
<path d="M60.4417 18.7978C60.4412 17.7229 60.2112 16.7729 59.7461 15.9576C59.2897 15.1558 58.6054 14.4838 57.6881 13.9524C50.1148 9.58556 42.5337 5.232 34.9628 0.860668C32.9217 -0.317777 30.9428 -0.274888 28.9166 0.920668C25.9021 2.69845 10.8099 11.3451 6.31233 13.95C4.46033 15.0222 3.559 16.6631 3.55855 18.7956C3.55566 27.578 3.55855 36.36 3.55566 45.1424C3.55566 46.1936 3.77633 47.1253 4.22078 47.9284C4.67766 48.7544 5.37122 49.4449 6.30989 49.9882C10.8077 52.5931 25.9019 61.2393 28.9157 63.0173C30.9426 64.2133 32.9217 64.2562 34.9634 63.0773C42.5346 58.7058 50.1159 54.3524 57.6906 49.9856C58.6292 49.4424 59.3228 48.7516 59.7797 47.9262C60.2234 47.1231 60.4446 46.1916 60.4446 45.1398C60.4446 45.1398 60.4446 27.5802 60.4417 18.7978Z" fill="#649AD2"/>
<path d="M32.0869 31.8836L4.22021 47.9284C4.67733 48.7544 5.37088 49.4449 6.30955 49.9882C10.8073 52.5931 25.9016 61.2393 28.9153 63.0173C30.9422 64.2133 32.9213 64.2562 34.9631 63.0773C42.5342 58.7058 50.1155 54.3524 57.6902 49.9856C58.6289 49.4424 59.3224 48.7516 59.7793 47.9262L32.0869 31.8836Z" fill="#004482"/>
<path d="M23.8335 36.6362C25.4551 39.4669 28.5033 41.3762 32.0002 41.3762C35.5186 41.3762 38.5842 39.4429 40.1975 36.5816L32.0873 31.8836L23.8335 36.6362Z" fill="#1A4674"/>
<path d="M60.4414 18.7978C60.4409 17.7229 60.2109 16.7729 59.7458 15.9576L32.0869 31.8836L59.7794 47.9262C60.2231 47.1231 60.4438 46.1916 60.4442 45.1398C60.4442 45.1398 60.4442 27.5802 60.4414 18.7978Z" fill="#01589C"/>
<path d="M58.9188 33.0302H56.7548V35.1947H54.5904V33.0302H52.4266V30.8667H54.5904V28.7027H56.7548V30.8667H58.9188V33.0302ZM31.9999 13.0771C38.9188 13.0771 44.9684 16.7971 48.2599 22.3458L48.3586 22.5144L40.1361 27.2493C38.5066 24.4473 35.4744 22.5618 31.9999 22.5618C26.8044 22.5618 22.5926 26.7736 22.5926 31.9689C22.5908 33.6064 23.0186 35.2157 23.8332 36.6362C25.4548 39.4669 28.503 41.3762 31.9999 41.3762C35.4797 41.3762 38.5166 39.4851 40.1437 36.6756L40.1972 36.5816L48.4077 41.3384C45.1521 47.0267 39.0237 50.8609 31.9999 50.8609C24.989 50.8609 18.8701 47.042 15.6101 41.3704C14.0186 38.6018 13.1079 35.3918 13.1079 31.9689C13.1079 21.5356 21.5659 13.0771 31.9999 13.0771ZM48.8588 28.7024V30.8664H51.0226V33.0302H48.8588V35.1947H46.6948V33.0302H44.5308V30.8667H46.6948V28.7027H48.8588V28.7024Z" fill="white"/>
</g>
<defs>
<clipPath id="clip0_65_176">
<rect width="64" height="64" fill="white"/>
</clipPath>
</defs>
</svg>
