<svg width="64" height="64" viewBox="0 0 64 64" fill="none" xmlns="http://www.w3.org/2000/svg">
<g clip-path="url(#clip0_65_232)">
<path d="M49 0H15C6.71573 0 0 6.71573 0 15V49C0 57.2843 6.71573 64 15 64H49C57.2843 64 64 57.2843 64 49V15C64 6.71573 57.2843 0 49 0Z" fill="#242938"/>
<mask id="mask0_65_232" style="mask-type:luminance" maskUnits="userSpaceOnUse" x="15" y="7" width="34" height="50">
<path d="M15.25 7H48.59V57H15.25V7Z" fill="white"/>
</mask>
<g mask="url(#mask0_65_232)">
<path d="M23.5869 57C28.1869 57 31.9202 53.2668 31.9202 48.6668V40.3333H23.5869C18.9869 40.3333 15.2534 44.0668 15.2534 48.6668C15.2534 53.2668 18.9869 57 23.5869 57Z" fill="#0ACF83"/>
<path d="M15.2534 32C15.2534 27.4 18.9869 23.6667 23.5869 23.6667H31.9202V40.3332H23.5869C18.9869 40.3332 15.2534 36.6 15.2534 32Z" fill="#A259FF"/>
<path d="M15.2534 15.3333C15.2534 10.7333 18.9869 7 23.5869 7H31.9202V23.6667H23.5869C18.9869 23.6667 15.2534 19.9333 15.2534 15.3333Z" fill="#F24E1E"/>
<path d="M31.9204 7H40.2537C44.8537 7 48.5872 10.7333 48.5872 15.3333C48.5872 19.9333 44.8537 23.6667 40.2537 23.6667H31.9204V7Z" fill="#FF7262"/>
<path d="M48.5872 32C48.5872 36.6 44.8537 40.3332 40.2537 40.3332C35.6537 40.3332 31.9204 36.6 31.9204 32C31.9204 27.4 35.6537 23.6667 40.2537 23.6667C44.8537 23.6667 48.5872 27.4 48.5872 32Z" fill="#1ABCFE"/>
</g>
</g>
<defs>
<clipPath id="clip0_65_232">
<rect width="64" height="64" fill="white"/>
</clipPath>
</defs>
</svg>
