<svg width="64" height="64" viewBox="0 0 64 64" fill="none" xmlns="http://www.w3.org/2000/svg">
<path d="M44.754 11.0245H52.1235C58.6785 11.0245 64 16.3462 64 22.9012V48.8142C64 55.3692 58.6782 60.691 52.1235 60.691H51.5428C48.169 60.1633 46.7057 59.1515 45.5755 58.2962L36.2057 50.5925C35.971 50.4027 35.6783 50.2991 35.3764 50.2991C35.0745 50.2991 34.7817 50.4027 34.547 50.5925L31.503 53.0955L22.93 46.0462C22.6956 45.856 22.4029 45.7522 22.101 45.7522C21.7991 45.7522 21.5064 45.856 21.272 46.0462L9.362 56.5238C6.965 58.4733 5.3795 58.113 4.35125 58C1.6955 55.8205 0 52.514 0 48.8142V22.9012C0 16.3462 5.32175 11.0245 11.8775 11.0245H19.2305L19.2173 11.0542L18.9692 11.7767L18.8923 12.0247L18.5585 13.5047L18.5125 13.7647L18.366 15.2472L18.3465 15.654L18.3435 15.7965L18.3575 16.4765L18.391 16.8747L18.4735 17.4982L18.5788 18.0595L18.7038 18.5765L18.8657 19.136L19.2865 20.321L19.4252 20.6765L20.158 22.2245L20.417 22.7L21.2642 24.1545L21.5885 24.6792L22.771 26.4205L22.9417 26.6512L24.4805 28.6537L24.978 29.2705L26.7348 31.3245L27.0958 31.7195L28.544 33.278L29.1178 33.872L30.0658 34.8135L29.8755 34.9725L29.757 35.0795C29.4346 35.3799 29.1296 35.6984 28.8435 36.0335C28.706 36.1956 28.5749 36.3631 28.4505 36.5355C28.2608 36.7989 28.0912 37.0762 27.943 37.365C27.8673 37.515 27.7995 37.6687 27.7395 37.8255C27.5853 38.2266 27.4926 38.6487 27.4645 39.0775L27.459 39.4477C27.4725 39.9697 27.579 40.4852 27.773 40.9702C27.9699 41.4617 28.2571 41.912 28.6197 42.2977C28.8834 42.5788 29.1836 42.8231 29.5123 43.0242C29.7923 43.1957 30.0905 43.3367 30.4007 43.4442C31.0751 43.6729 31.7907 43.7543 32.4992 43.6827H32.5033C33.1077 43.6242 33.6952 43.4498 34.2337 43.1693C34.4662 43.0463 34.6874 42.9031 34.8947 42.7412C35.4885 42.2792 35.9486 41.6674 36.2277 40.9687C36.446 40.4237 36.5527 39.8412 36.5433 39.2552L36.5262 38.949C36.4866 38.5443 36.39 38.1472 36.2393 37.7695C36.174 37.605 36.0999 37.4442 36.0173 37.2877C35.8637 36.9996 35.6891 36.7231 35.4948 36.4607C35.406 36.3407 35.314 36.2227 35.219 36.1075C34.9026 35.7299 34.5621 35.3732 34.1995 35.0397L33.943 34.8215L34.377 34.3927L36.2433 32.444L36.8887 31.7352L37.892 30.6065L38.5445 29.8435L39.475 28.71L40.105 27.918L41.03 26.681L41.4972 26.041L42.1598 25.0502L42.7115 24.206L43.7515 22.3952L44.3462 21.2072L44.3635 21.1707L44.8185 20.0682C44.8247 20.0542 44.8298 20.0395 44.8343 20.0247L45.3245 18.4952L45.376 18.2725L45.5887 17.055L45.63 16.725L45.6425 16.5232L45.6575 15.7607L45.6535 15.619L45.6145 14.936L45.5662 14.406L45.3245 12.8775C45.321 12.857 45.3163 12.8367 45.3105 12.8167L45.0003 11.6862L44.8935 11.3722L44.754 11.0247V11.0245ZM48.257 43.339C46.712 43.3607 45.4648 44.608 45.443 46.153C45.4655 47.6978 46.7125 48.9442 48.257 48.9662C49.8015 48.9437 51.0485 47.6975 51.072 46.153C51.0495 44.608 49.802 43.3607 48.257 43.339Z" fill="url(#paint0_radial_65_212)"/>
<path d="M25.6576 60.691H11.8776C9.13245 60.6947 6.47154 59.7434 4.35107 58C5.37932 58.113 6.96482 58.4733 9.36182 56.5238L21.2718 46.0462C21.5062 45.856 21.7989 45.7522 22.1008 45.7522C22.4027 45.7522 22.6954 45.856 22.9298 46.0462L31.5028 53.0955L34.5468 50.5925C34.7816 50.4027 35.0743 50.2991 35.3762 50.2991C35.6781 50.2991 35.9708 50.4027 36.2056 50.5925L45.5756 58.2962C46.7056 59.1512 48.1688 60.1633 51.5426 60.691H45.3096C44.759 60.6841 44.2242 60.5058 43.7796 60.181L43.6703 60.097L35.4246 53.2497L27.2871 60.097C26.8276 60.4752 26.2527 60.6849 25.6576 60.691ZM48.2571 43.339C46.7121 43.3608 45.4648 44.608 45.4431 46.153C45.4656 47.6978 46.7126 48.9443 48.2571 48.9663C49.8016 48.9438 51.0486 47.6975 51.0721 46.153C51.0496 44.608 49.8021 43.3608 48.2571 43.339ZM30.0658 34.8135L29.1178 33.872L28.5441 33.278L27.0958 31.7198L26.7348 31.3245L24.9778 29.2705L24.4803 28.654L22.9418 26.6515L22.7711 26.4205L21.5886 24.6793L21.2643 24.1545L20.4168 22.7L20.1581 22.2245L19.4256 20.6765L19.2866 20.321L18.8658 19.136L18.7036 18.5765L18.5788 18.0595L18.4738 17.4983L18.3908 16.875L18.3573 16.4768L18.3433 15.7968L18.3463 15.6543L18.3658 15.2475L18.5123 13.765L18.5583 13.505L18.8921 12.025L18.9691 11.777L19.2171 11.0545L19.2966 10.8673L19.6911 10.0005L19.9646 9.4845L20.3458 8.85625L20.7253 8.2965L20.9958 7.941L21.3076 7.56525L21.6506 7.188L21.9446 6.8925L22.6601 6.26275L23.1831 5.83475C23.1956 5.824 23.2088 5.81475 23.2221 5.80525L23.8411 5.3865L24.3331 5.07325L25.2668 4.58125C25.2808 4.57275 25.2973 4.56575 25.3118 4.55875L26.6363 4.00925L26.7588 3.96325L27.9358 3.61875L28.4333 3.50725L29.1051 3.37225L29.5511 3.30475L30.2346 3.21975L30.7008 3.17825L31.6258 3.12925L31.9883 3.12525L32.6753 3.13925L32.8538 3.14925L33.8483 3.232L35.1643 3.4175L35.3163 3.4495L36.6163 3.773L36.9983 3.88675L37.4226 4.0335L37.9393 4.229L38.3478 4.402L38.9478 4.685L39.3261 4.87925L40.0058 5.27825L40.2591 5.43425L41.1858 6.11075L41.4518 6.3415L42.0981 6.93L42.1298 6.962L42.6778 7.54975L42.8666 7.7625L43.5096 8.617L43.6406 8.821L44.1511 9.68325L44.3048 9.97875L44.5923 10.6218L44.8933 11.3725L45.0001 11.6865L45.3103 12.817C45.3161 12.837 45.3208 12.857 45.3243 12.8778L45.5661 14.4063L45.6143 14.9363L45.6533 15.6193L45.6573 15.761L45.6423 16.5235L45.6298 16.7253L45.5886 17.0553L45.3758 18.2728L45.3243 18.4955L44.8341 20.025C44.8296 20.04 44.8246 20.0545 44.8186 20.0688L44.3633 21.171L44.3461 21.2075L43.7511 22.3955L42.7113 24.2063L42.1596 25.0505L41.4971 26.0413L41.0301 26.6813L40.1048 27.9183L39.4748 28.7103L38.5441 29.8438L37.8916 30.6068L36.8886 31.7355L36.2431 32.4443L34.3768 34.393L33.9428 34.8218L34.1993 35.04C34.5619 35.3735 34.9025 35.7301 35.2188 36.1077C35.3138 36.2233 35.4058 36.341 35.4948 36.461C35.6891 36.7234 35.8636 36.9998 36.0171 37.288C36.0996 37.444 36.1738 37.6052 36.2391 37.7697C36.3881 38.1472 36.4886 38.546 36.5261 38.9492L36.5431 39.2555C36.5527 39.8419 36.4454 40.4243 36.2276 40.9688C35.9484 41.6674 35.4883 42.2792 34.8946 42.7412C34.6873 42.9032 34.4661 43.0465 34.2336 43.1695C33.695 43.4501 33.1075 43.6244 32.5031 43.683H32.4991C31.7906 43.7544 31.075 43.6731 30.4006 43.4445C30.0902 43.3369 29.7923 43.1961 29.5121 43.0245C29.1834 42.8234 28.8832 42.579 28.6196 42.298C28.2569 41.9122 27.9697 41.462 27.7728 40.9705C27.5786 40.4857 27.4722 39.9701 27.4588 39.448L27.4643 39.0778C27.4924 38.6489 27.5851 38.2268 27.7393 37.8257C27.7993 37.6682 27.8673 37.5148 27.9428 37.3652C28.091 37.0764 28.2606 36.7992 28.4503 36.5358C28.5747 36.3633 28.7058 36.1959 28.8433 36.0337C29.1295 35.6987 29.4345 35.3802 29.7568 35.0798L29.8753 34.9728L30.0653 34.8138L30.0658 34.8135Z" fill="black"/>
<path d="M35.4249 53.2497L43.6704 60.097C44.1416 60.4805 44.7304 60.6902 45.3379 60.691H25.6294C26.2344 60.691 26.8204 60.4812 27.2874 60.097L35.4249 53.2497ZM32.0409 37.0897L32.1156 37.1115C32.1399 37.1232 32.1601 37.1405 32.1819 37.1552L32.2444 37.2105C32.3989 37.353 32.5483 37.5009 32.6924 37.654C32.7939 37.7625 32.8929 37.874 32.9879 37.9892C33.109 38.135 33.2215 38.2878 33.3246 38.4467C33.3691 38.517 33.4104 38.588 33.4494 38.662C33.4829 38.726 33.5134 38.792 33.5399 38.8592C33.5866 38.9762 33.6216 39.0992 33.6324 39.2247L33.6301 39.4602C33.6146 39.6727 33.5488 39.8785 33.4381 40.0605C33.3274 40.2425 33.1749 40.3955 32.9934 40.507C32.7577 40.6495 32.4927 40.7367 32.2184 40.762L31.9279 40.7705L31.6821 40.7487C31.5674 40.732 31.4544 40.7047 31.3446 40.667C31.233 40.6289 31.1258 40.5787 31.0251 40.5172L30.8334 40.377C30.6076 40.1839 30.4537 39.9201 30.3969 39.6285C30.3874 39.5795 30.3799 39.5301 30.3744 39.4805L30.3671 39.256C30.3711 39.1952 30.3804 39.1352 30.3936 39.0752C30.4274 38.9442 30.4752 38.8171 30.5361 38.6962C30.6149 38.5447 30.7046 38.399 30.8044 38.2605C30.9705 38.0362 31.1504 37.8224 31.3431 37.6205C31.4667 37.4895 31.5946 37.3627 31.7266 37.2402L31.8209 37.1552C31.8864 37.1115 31.8871 37.1115 31.9621 37.0897H32.0409ZM31.5584 5.791L31.5886 5.7885V32.0337L31.5231 31.913C30.6593 30.3147 29.855 28.685 29.1121 27.027C28.5093 25.6852 27.9634 24.3186 27.4759 22.9307C27.0863 21.8251 26.7571 20.6991 26.4899 19.5577C26.2824 18.6512 26.1236 17.7315 26.0581 16.8022C26.0331 16.4058 26.0256 16.0084 26.0356 15.6112C26.0416 15.265 26.0556 14.9197 26.0776 14.5745C26.1113 14.0314 26.1677 13.4899 26.2466 12.9515C26.3092 12.5279 26.3886 12.1069 26.4844 11.6895C26.5607 11.3583 26.6497 11.0301 26.7511 10.7057C26.8975 10.2383 27.0732 9.78058 27.2771 9.33525C27.3521 9.17475 27.4321 9.015 27.5166 8.85825C28.0231 7.91975 28.7106 7.05525 29.6111 6.477C30.1963 6.09638 30.8639 5.86118 31.5584 5.791ZM34.9616 5.85725L36.7271 6.36075C37.5449 6.6625 38.3321 7.056 39.0556 7.54725C40.0416 8.21274 40.8914 9.06043 41.5594 10.0447C41.9514 10.6297 42.2767 11.2567 42.5291 11.914C42.8964 12.8858 43.1237 13.9049 43.2041 14.9407C43.2276 15.212 43.2409 15.484 43.2461 15.7562C43.2524 16.0087 43.2511 16.262 43.2306 16.5145C43.1805 17.0797 43.0743 17.6386 42.9134 18.1827C42.784 18.628 42.6313 19.0661 42.4559 19.4952C42.2377 20.0291 41.9953 20.5527 41.7294 21.0645C41.1409 22.2012 40.4634 23.2885 39.7384 24.34C38.8398 25.6325 37.8818 26.8826 36.8676 28.0865C35.7661 29.4001 34.6173 30.6733 33.4236 31.9037C34.2337 30.3849 34.9897 28.8378 35.6904 27.2655C36.08 26.3896 36.4476 25.504 36.7929 24.6097C37.1726 23.6276 37.515 22.6315 37.8194 21.6235C38.0468 20.8684 38.2437 20.1045 38.4094 19.3335C38.5524 18.6719 38.6593 18.0031 38.7299 17.33C38.7874 16.7687 38.8084 16.2045 38.7944 15.6415C38.7891 15.297 38.7765 14.9527 38.7564 14.6087C38.6739 13.2242 38.4631 11.8445 38.0594 10.517C37.9065 10.0137 37.7206 9.52106 37.5029 9.04225C36.9861 7.91675 36.2649 6.86425 35.2891 6.0965L34.9616 5.85725Z" fill="white"/>
<defs>
<radialGradient id="paint0_radial_65_212" cx="0" cy="0" r="1" gradientUnits="userSpaceOnUse" gradientTransform="translate(2637.13 2472.7) scale(4636.27 4636.27)">
<stop stop-color="#BA7BF0"/>
<stop offset="0.45" stop-color="#996BEC"/>
<stop offset="1" stop-color="#5046E4"/>
</radialGradient>
</defs>
</svg>
