<svg width="64" height="64" viewBox="0 0 64 64" fill="none" xmlns="http://www.w3.org/2000/svg">
<g clip-path="url(#clip0_65_154)">
<path d="M49 0H15C6.71573 0 0 6.71573 0 15V49C0 57.2843 6.71573 64 15 64H49C57.2843 64 64 57.2843 64 49V15C64 6.71573 57.2843 0 49 0Z" fill="#F03C2E"/>
<mask id="mask0_65_154" style="mask-type:luminance" maskUnits="userSpaceOnUse" x="7" y="7" width="50" height="50">
<path d="M7 7H57V57H7V7Z" fill="white"/>
</mask>
<g mask="url(#mask0_65_154)">
<path d="M56.0564 29.7735L34.2267 7.94375C33.7766 7.49314 33.2029 7.18625 32.5783 7.06195C31.9537 6.93765 31.3062 7.00153 30.7179 7.2455C30.3274 7.40737 29.9725 7.64464 29.6737 7.94375L25.1424 12.475L30.8924 18.225C32.2299 17.7562 33.7612 18.0765 34.8267 19.1422C35.3339 19.6504 35.688 20.291 35.8485 20.9909C36.009 21.6907 35.9695 22.4216 35.7344 23.1L41.2767 28.6423C42.6174 28.1798 44.1642 28.478 45.2344 29.5515C45.7705 30.0874 46.1356 30.7703 46.2834 31.5138C46.4312 32.2572 46.3551 33.0278 46.0647 33.728C45.6754 34.6667 44.9292 35.4125 43.9903 35.8012C43.0513 36.19 41.9964 36.19 41.0574 35.8013C40.5924 35.6085 40.1699 35.3263 39.8142 34.9702C38.6892 33.8452 38.4112 32.189 38.9799 30.803L33.8112 25.6343V39.236C34.1864 39.4216 34.5293 39.6664 34.8267 39.961C35.5453 40.6796 35.9489 41.6542 35.9489 42.6704C35.9489 43.6866 35.5453 44.6612 34.8267 45.3797C34.1081 46.0983 33.1335 46.502 32.1173 46.502C31.1011 46.502 30.1265 46.0983 29.4079 45.3797C28.8716 44.8441 28.5063 44.1614 28.3583 43.418C28.2103 42.6746 28.2862 41.904 28.5764 41.2038C28.7691 40.7388 29.0517 40.3165 29.4079 39.961C29.7782 39.5922 30.1892 39.3125 30.6627 39.125V25.3967C30.1929 25.2047 29.7662 24.9205 29.4079 24.561C28.87 24.0236 28.5042 23.3381 28.3573 22.5921C28.2103 21.846 28.2889 21.073 28.5829 20.3717L22.9112 14.7035L7.94243 29.6565C7.49181 30.1068 7.18489 30.6807 7.06051 31.3055C6.93612 31.9303 6.99987 32.5779 7.24368 33.1665C7.40571 33.5573 7.64315 33.9123 7.94243 34.2113L29.7737 56.0392C30.0726 56.3383 30.4274 56.5755 30.8179 56.7375C31.607 57.0641 32.4934 57.0641 33.2824 56.7375C33.673 56.5755 34.0278 56.3383 34.3267 56.0392L56.0564 34.344C56.3556 34.045 56.593 33.69 56.7549 33.2993C56.9169 32.9085 57.0003 32.4897 57.0004 32.0667C57.0005 31.6437 56.9171 31.2248 56.7551 30.834C56.5931 30.4433 56.3557 30.0882 56.0564 29.7892" fill="white"/>
</g>
</g>
<defs>
<clipPath id="clip0_65_154">
<rect width="64" height="64" fill="white"/>
</clipPath>
</defs>
</svg>
