<svg width="64" height="64" viewBox="0 0 64 64" fill="none" xmlns="http://www.w3.org/2000/svg">
<g clip-path="url(#clip0_65_137)">
<path d="M49 0H15C6.71573 0 0 6.71573 0 15V49C0 57.2843 6.71573 64 15 64H49C57.2843 64 64 57.2843 64 49V15C64 6.71573 57.2843 0 49 0Z" fill="#242938"/>
<path d="M29.9694 7.779C31.1992 7.07525 32.8007 7.072 34.0292 7.779C40.2097 11.2715 46.3922 14.7583 52.5717 18.2528C53.7342 18.9075 54.5114 20.201 54.4997 21.5403V42.5515C54.5084 43.9462 53.6542 45.2707 52.4279 45.9105C46.2677 49.3838 40.1104 52.861 33.9512 56.3343C32.6964 57.0518 31.0627 56.9965 29.8467 56.22C27.9999 55.1495 26.1499 54.084 24.3029 53.0145C23.9254 52.7895 23.4999 52.6105 23.2334 52.2445C23.4692 51.927 23.8904 51.8875 24.2327 51.7487C25.0034 51.5035 25.7117 51.11 26.4197 50.7282C26.5989 50.6057 26.8174 50.6527 26.9892 50.7622C28.5684 51.6677 30.1339 52.5997 31.7184 53.4965C32.0564 53.6917 32.3987 53.4325 32.6877 53.2715C38.7327 49.8548 44.7852 46.4513 50.8294 43.0335C51.0534 42.9258 51.1772 42.688 51.1589 42.4427C51.1632 35.5115 51.1599 28.5793 51.1612 21.6478C51.1867 21.3698 51.0257 21.1138 50.7739 20.9998C44.6352 17.5425 38.4992 14.0803 32.3614 10.6223C32.2551 10.5491 32.1291 10.5098 32.0001 10.5096C31.8711 10.5094 31.745 10.5482 31.6384 10.621C25.5004 14.0803 19.3659 17.546 13.2279 21.0028C12.9772 21.117 12.8089 21.3688 12.8387 21.6478C12.8399 28.5793 12.8387 35.5115 12.8387 42.4437C12.828 42.5635 12.8543 42.6836 12.914 42.7879C12.9738 42.8923 13.064 42.9758 13.1727 43.0272C14.8104 43.956 16.4504 44.8783 18.0894 45.804C19.0129 46.3008 20.1464 46.5962 21.1639 46.2155C22.0614 45.8935 22.6907 44.9772 22.6737 44.0243C22.6822 37.1335 22.6694 30.2418 22.6799 23.3518C22.6574 23.046 22.9477 22.7933 23.2452 22.8223C24.0322 22.8168 24.8202 22.8115 25.6072 22.8243C25.9357 22.8168 26.1617 23.1463 26.1212 23.4543C26.1179 30.3888 26.1297 37.3232 26.1159 44.2575C26.1179 46.1058 25.3587 48.1167 23.6492 49.021C21.5434 50.1118 18.9404 49.8805 16.8599 48.8345C15.0589 47.9355 13.3399 46.8745 11.5709 45.9115C10.3414 45.2752 9.4914 43.9455 9.50015 42.5518V21.5403C9.48715 20.1733 10.2957 18.8563 11.4939 18.211C17.6532 14.7353 23.8114 11.2565 29.9694 7.779Z" fill="#81CD39"/>
<path d="M35.3432 22.3337C38.0294 22.1607 40.9052 22.2312 43.3224 23.5547C45.1942 24.5687 46.2317 26.6972 46.2647 28.7765C46.2124 29.0567 45.9192 29.2115 45.6514 29.1922C44.8722 29.1912 44.0924 29.203 43.3132 29.187C42.9824 29.1997 42.7904 28.895 42.7489 28.6027C42.5249 27.6077 41.9822 26.6225 41.0459 26.1425C39.6084 25.423 37.9419 25.4592 36.3744 25.4742C35.2302 25.5347 33.9997 25.634 33.0302 26.3067C32.2859 26.8165 32.0599 27.8455 32.3254 28.6742C32.5759 29.2692 33.2627 29.4612 33.8249 29.6382C37.0622 30.485 40.4927 30.4005 43.6682 31.5147C44.9829 31.969 46.2689 32.8522 46.7189 34.2287C47.3077 36.0737 47.0497 38.2787 45.7369 39.7597C44.6724 40.9785 43.1222 41.642 41.5759 42.0022C39.5189 42.461 37.3842 42.4727 35.2952 42.269C33.3309 42.045 31.2867 41.529 29.7704 40.1907C28.4737 39.0647 27.8404 37.3102 27.9032 35.6172C27.9182 35.3312 28.2029 35.1317 28.4769 35.1552C29.2617 35.149 30.0467 35.1467 30.8314 35.1565C31.1452 35.134 31.3774 35.405 31.3937 35.7005C31.5382 36.6482 31.8944 37.6432 32.7212 38.205C34.3162 39.2342 36.3179 39.1637 38.1444 39.1925C39.6577 39.1255 41.3564 39.1052 42.5912 38.105C43.2427 37.5345 43.4357 36.58 43.2597 35.759C43.0689 35.0657 42.3437 34.7427 41.7209 34.5315C38.5252 33.5207 35.0562 33.8875 31.8914 32.7442C30.6064 32.2902 29.3639 31.4317 28.8704 30.1117C28.1817 28.2435 28.4972 25.9325 29.9474 24.5017C31.3614 23.078 33.4024 22.5297 35.3432 22.3337Z" fill="#81CD39"/>
</g>
<defs>
<clipPath id="clip0_65_137">
<rect width="64" height="64" fill="white"/>
</clipPath>
</defs>
</svg>
