<svg width="64" height="64" viewBox="0 0 64 64" fill="none" xmlns="http://www.w3.org/2000/svg">
<g clip-path="url(#clip0_65_208)">
<path d="M49 0H15C6.71573 0 0 6.71573 0 15V49C0 57.2843 6.71573 64 15 64H49C57.2843 64 64 57.2843 64 49V15C64 6.71573 57.2843 0 49 0Z" fill="#242938"/>
<path d="M9.5 32.0005C9.5 19.5737 19.5737 9.5 32.0005 9.5C41.1372 9.5 49.0023 14.946 52.5262 22.769L22.7687 52.5262C21.4983 51.9537 20.284 51.2642 19.1413 50.4668L37.6077 32.0005H32.0005L16.0903 47.9108C12.0185 43.839 9.5 38.2137 9.5 32.0005ZM54.5 32.0078L32.0073 54.5005C44.4277 54.4965 54.4958 44.4285 54.5 32.0078Z" fill="white"/>
</g>
<defs>
<clipPath id="clip0_65_208">
<rect width="64" height="64" fill="white"/>
</clipPath>
</defs>
</svg>
