<svg width="64" height="64" viewBox="0 0 64 64" fill="none" xmlns="http://www.w3.org/2000/svg">
<g clip-path="url(#clip0_65_248)">
<rect x="3" y="3" width="38" height="38" fill="white"/>
<rect x="23" y="23" width="38" height="38" fill="white"/>
<path d="M15.1573 32C14.7108 31.9993 14.2828 31.8214 13.9673 31.5054C13.6519 31.1895 13.4747 30.7612 13.4747 30.3147V11.7893C13.4747 10.8587 14.2267 10.104 15.1573 10.104H21.4773C22.704 10.104 23.848 10.2293 24.9093 10.4747C25.9947 10.6987 26.9307 11.088 27.7173 11.648C28.5253 12.1867 29.16 12.9147 29.624 13.8347C30.0853 14.728 30.3173 15.8347 30.3173 17.1573C30.3173 18.4347 30.072 19.5413 29.5893 20.4827C29.1488 21.3968 28.4948 22.1916 27.6827 22.8C26.8397 23.4203 25.8869 23.8754 24.8747 24.1413C23.8133 24.4347 22.68 24.5787 21.48 24.5787H20.2533C19.8064 24.5787 19.3777 24.7562 19.0616 25.0723C18.7456 25.3884 18.568 25.817 18.568 26.264V30.3173C18.5673 30.7639 18.3894 31.1918 18.0734 31.5073C17.7575 31.8228 17.3292 32 16.8827 32H15.1573ZM18.568 18.9653C18.568 19.896 19.3227 20.6507 20.2533 20.6507H21.168C23.9413 20.6507 25.328 19.4853 25.328 17.1573C25.328 16.016 24.968 15.2107 24.2507 14.7387C23.5573 14.2693 22.5307 14.0347 21.168 14.0347H20.2533C19.8068 14.0347 19.3785 14.2119 19.0626 14.5273C18.7466 14.8428 18.5687 15.2708 18.568 15.7173V18.9653ZM35.368 53.8933C34.9219 53.8926 34.4944 53.7151 34.179 53.3997C33.8635 53.0843 33.686 52.6567 33.6853 52.2107V33.6853C33.6846 33.464 33.7277 33.2448 33.8119 33.0402C33.8962 32.8356 34.0201 32.6496 34.1764 32.493C34.3328 32.3364 34.5186 32.2122 34.723 32.1276C34.9275 32.043 35.1467 31.9996 35.368 32H41.2427C42.416 32 43.496 32.0907 44.4853 32.2667C45.4987 32.4267 46.3733 32.7173 47.1093 33.1413C47.8453 33.568 48.4213 34.128 48.8347 34.8213C49.272 35.5147 49.4907 36.3867 49.4907 37.44C49.4907 37.9333 49.4107 38.4267 49.2507 38.9173C49.1086 39.4157 48.8734 39.8826 48.5573 40.2933C47.8532 41.2369 46.8359 41.8986 45.688 42.16C45.6704 42.1647 45.6548 42.1751 45.6437 42.1896C45.6326 42.204 45.6266 42.2218 45.6267 42.24C45.6267 42.28 45.6533 42.3147 45.6933 42.32C47.2693 42.616 48.4667 43.1733 49.2827 43.9893C50.112 44.816 50.5253 45.9707 50.5253 47.448C50.5253 48.568 50.3067 49.528 49.8693 50.336C49.4304 51.1437 48.804 51.8341 48.0427 52.3493C47.1935 52.8922 46.2598 53.2896 45.28 53.5253C44.1712 53.7802 43.0364 53.9046 41.8987 53.896L35.368 53.8933ZM38.7573 39.1147C38.7573 40.0453 39.512 40.7973 40.4427 40.7973H41.0027C42.2427 40.7973 43.1413 40.5627 43.6933 40.0933C44.2453 39.624 44.52 38.9627 44.52 38.112C44.52 37.3067 44.2347 36.736 43.6587 36.4C43.1067 36.04 42.232 35.8613 41.0347 35.8613H40.4427C39.9957 35.8613 39.567 36.0389 39.251 36.355C38.9349 36.671 38.7573 37.0997 38.7573 37.5467V39.1147ZM38.7573 48.3493C38.7573 49.28 39.512 50.032 40.4427 50.032H41.4827C44.2 50.032 45.5573 49.048 45.5573 47.0773C45.5573 46.1173 45.224 45.4213 44.5547 44.9973C43.912 44.5707 42.888 44.3573 41.4827 44.3573H40.4427C39.9957 44.3573 39.567 44.5349 39.251 44.851C38.9349 45.167 38.7573 45.5957 38.7573 46.0427V48.3493ZM3.704 0C1.67733 0 0 1.67733 0 3.704V40.08C0.00697335 41.0605 0.39937 41.9988 1.09242 42.6924C1.78548 43.3859 2.72355 43.779 3.704 43.7867H21.8933C22.3394 43.7853 22.7667 43.6071 23.0816 43.2912C23.3965 42.9753 23.5733 42.5474 23.5733 42.1013C23.5719 41.6562 23.3945 41.2297 23.0797 40.9149C22.765 40.6002 22.3385 40.4227 21.8933 40.4213H3.704C3.496 40.4213 3.37067 40.288 3.37067 40.08V3.70667C3.37067 3.49867 3.496 3.37333 3.704 3.37333H40.08C40.288 3.37333 40.4187 3.49867 40.4187 3.70667V21.8933C40.4201 22.3389 40.5979 22.7658 40.9132 23.0807C41.2286 23.3955 41.6557 23.5726 42.1013 23.5733C42.5479 23.574 42.9764 23.3975 43.2929 23.0825C43.6094 22.7676 43.7879 22.3398 43.7893 21.8933V3.704C43.7817 2.72401 43.389 1.78633 42.696 1.09335C42.003 0.400375 41.0653 0.00767014 40.0853 0L3.704 0ZM42.1067 20.208C41.8851 20.208 41.6657 20.2517 41.4611 20.3365C41.2565 20.4214 41.0705 20.5458 40.914 20.7026C40.7575 20.8593 40.6334 21.0455 40.5489 21.2502C40.4643 21.455 40.421 21.6745 40.4213 21.896C40.4227 22.3416 40.6006 22.7685 40.9159 23.0833C41.2312 23.3982 41.6584 23.5753 42.104 23.576H60.296C60.504 23.576 60.6293 23.7093 60.6293 23.9173V60.2933C60.6293 60.5013 60.504 60.6267 60.296 60.6267H23.92C23.7147 60.6267 23.5813 60.5013 23.5813 60.2933V42.1067C23.5799 41.6611 23.4021 41.2342 23.0868 40.9193C22.7714 40.6045 22.3443 40.4274 21.8987 40.4267C21.4522 40.426 21.0236 40.6025 20.7071 40.9175C20.3906 41.2324 20.2121 41.6602 20.2107 42.1067V60.2987C20.219 61.2782 20.612 62.2152 21.305 62.9076C21.9979 63.6 22.9351 63.9923 23.9147 64H60.296C62.3227 64 64 62.3227 64 60.296V23.92C63.993 22.9395 63.6006 22.0012 62.9076 21.3076C62.2145 20.6141 61.2765 20.221 60.296 20.2133L42.1067 20.208Z" fill="black"/>
</g>
<defs>
<clipPath id="clip0_65_248">
<rect width="64" height="64" fill="white"/>
</clipPath>
</defs>
</svg>
