<svg width="64" height="64" viewBox="0 0 64 64" fill="none" xmlns="http://www.w3.org/2000/svg">
<g clip-path="url(#clip0_65_85)">
<path d="M49 0H15C6.71573 0 0 6.71573 0 15V49C0 57.2843 6.71573 64 15 64H49C57.2843 64 64 57.2843 64 49V15C64 6.71573 57.2843 0 49 0Z" fill="#FF3E00"/>
<mask id="mask0_65_85" style="mask-type:luminance" maskUnits="userSpaceOnUse" x="13" y="9" width="38" height="46">
<path d="M13.25 9.5H50.661V54.5H13.25V9.5Z" fill="white"/>
</mask>
<g mask="url(#mask0_65_85)">
<path d="M48.2589 15.4495C44.1021 9.46197 35.8266 7.70797 29.8776 11.4832L19.3901 18.1952C16.5301 19.9877 14.5471 22.924 13.9751 26.2417C13.4791 29.0257 13.8986 31.8857 15.2334 34.3647C14.3184 35.7375 13.7079 37.263 13.4409 38.8647C12.8309 42.2587 13.6319 45.7672 15.6149 48.551C19.8099 54.5385 28.0469 56.2925 33.9961 52.5172L44.4834 45.8435C47.3436 44.051 49.3266 41.1147 49.8986 37.7967C50.3944 35.013 49.9749 32.1527 48.6401 29.674C49.5554 28.301 50.1656 26.7757 50.4326 25.174C51.0809 21.7417 50.2801 18.2332 48.2589 15.4495Z" fill="white"/>
<path d="M28.8473 49.1227C27.1992 49.5504 25.4594 49.4615 23.8634 48.8681C22.2674 48.2747 20.8921 47.2055 19.9236 45.805C18.7033 44.127 18.2456 42.0297 18.5886 39.9702C18.6651 39.627 18.7413 39.322 18.8176 38.9787L19.0083 38.3688L19.5421 38.75C20.791 39.6605 22.183 40.3565 23.6608 40.8092L24.0421 40.9238L24.0041 41.305C23.9658 41.839 24.1186 42.411 24.4236 42.8688C25.0338 43.7458 26.1016 44.1653 27.1311 43.8983C27.3601 43.822 27.5888 43.7457 27.7796 43.6312L38.2286 36.9575C38.7626 36.6145 39.1058 36.1187 39.2201 35.5085C39.3346 34.8982 39.1821 34.25 38.8388 33.7542C38.2286 32.877 37.1608 32.4957 36.1311 32.7627C35.9023 32.839 35.6736 32.9153 35.4828 33.0298L31.4786 35.5848C30.8303 36.0043 30.1058 36.3092 29.3431 36.5C27.6949 36.9275 25.9552 36.8385 24.3592 36.2451C22.7633 35.6518 21.388 34.5826 20.4193 33.1823C19.2371 31.5043 18.7413 29.4067 19.1228 27.3475C19.4658 25.3645 20.6863 23.572 22.4023 22.5042L32.8896 15.8305C33.5378 15.411 34.2626 15.106 35.0253 14.877C36.6736 14.4495 38.4133 14.5385 40.0093 15.1319C41.6053 15.7253 42.9806 16.7945 43.9491 18.195C45.1693 19.873 45.6268 21.9703 45.2838 24.0298C45.2073 24.373 45.1311 24.678 45.0168 25.0212L44.8261 25.6313L44.2921 25.25C43.0432 24.3395 41.6513 23.6435 40.1736 23.1908L39.7921 23.0763L39.8303 22.695C39.8686 22.161 39.7158 21.589 39.4108 21.1313C38.8006 20.2543 37.7328 19.8727 36.7033 20.1397C36.4743 20.216 36.2456 20.2922 36.0548 20.4067L25.6058 27.0805C25.0718 27.4237 24.7286 27.9195 24.6143 28.5298C24.4998 29.1398 24.6523 29.7882 24.9956 30.284C25.6058 31.161 26.6736 31.5422 27.7033 31.2755C27.9321 31.1992 28.1608 31.1227 28.3516 31.0085L32.3558 28.4535C33.0041 28.034 33.7286 27.7288 34.4913 27.5C36.1395 27.0724 37.8793 27.1613 39.4753 27.7547C41.0713 28.3481 42.4466 29.4173 43.4151 30.8178C44.6353 32.4958 45.0931 34.5933 44.7498 36.6525C44.4066 38.6355 43.1863 40.428 41.4701 41.4958L30.9828 48.1695C30.3346 48.589 29.6101 48.894 28.8473 49.1227Z" fill="#FF3E00"/>
</g>
</g>
<defs>
<clipPath id="clip0_65_85">
<rect width="64" height="64" fill="white"/>
</clipPath>
</defs>
</svg>
