<svg width="64" height="64" viewBox="0 0 64 64" fill="none" xmlns="http://www.w3.org/2000/svg">
<g clip-path="url(#clip0_65_187)">
<path d="M49 0H15C6.71573 0 0 6.71573 0 15V49C0 57.2843 6.71573 64 15 64H49C57.2843 64 64 57.2843 64 49V15C64 6.71573 57.2843 0 49 0Z" fill="#242938"/>
<path d="M8.4292 25.052C8.4292 25.052 7.24545 24.1987 8.66595 23.0595L11.9749 20.1005C11.9749 20.1005 12.922 19.1042 13.923 19.9722L44.4602 43.092V54.1785C44.4602 54.1785 44.4454 55.9195 42.2112 55.727L8.4292 25.052Z" fill="#2489CA"/>
<path d="M16.2999 32.198L8.42889 39.3537C8.42889 39.3537 7.61989 39.9555 8.42889 41.0307L12.0831 44.3545C12.0831 44.3545 12.9511 45.2867 14.2334 44.2262L22.5779 37.899L16.2999 32.198Z" fill="#1070B3"/>
<path d="M30.1186 32.2573L44.5539 21.2348L44.4601 10.2075C44.4601 10.2075 43.8436 7.80075 41.7871 9.0535L22.5781 26.5363L30.1186 32.2573Z" fill="#0877B9"/>
<path d="M42.2111 55.742C43.0496 56.6 44.0656 56.319 44.0656 56.319L55.3149 50.7757C56.7549 49.7943 56.5526 48.5762 56.5526 48.5762V15.4745C56.5526 14.0195 55.0631 13.5167 55.0631 13.5167L45.3134 8.81675C43.1829 7.5 41.7871 9.0535 41.7871 9.0535C41.7871 9.0535 43.5821 7.7615 44.4601 10.2075V53.9762C44.4615 54.2748 44.3958 54.5698 44.2679 54.8395C44.0114 55.3573 43.4541 55.8405 42.1176 55.6382L42.2111 55.742Z" fill="#3C99D4"/>
</g>
<defs>
<clipPath id="clip0_65_187">
<rect width="64" height="64" fill="white"/>
</clipPath>
</defs>
</svg>
